# xmcd
#
# Track frame offsets: 
#        182
#        14167
#        25877
#        39282
#        51117
#        64520
#        77747
#        91205
#        103722
#        117227
#        130392
#        143515
#        158870
#        173297
#        187155
#        202547
#        218797
#        230885
#
# Disc length: 3279 seconds
#
# Revision: 2
# Processed by: cddbd v1.5.2PL0 Copyright (c) Steve Scherf et al.
# Submitted via: ExactAudioCopyFreeDBPlugin 1.0
#
DISCID=ec0ccd12
DTITLE=Joe Tex - Best Of
DYEAR=1993
DGENRE=Blues
TTITLE0=Hold what you've got
TTITLE1=A sweet woman like you
TTITLE2=Don't make your children pay (for your mistakes)
TTITLE3=A woman (can change a man)
TTITLE4=You better believe it, baby
TTITLE5=The love you save (may be your own)
TTITLE6=I've got to do a little bit better
TTITLE7=S.Y.S.L.J.F.M. (The letter song)
TTITLE8=I believe I'm gonna make it
TTITLE9=The truest woman in the world
TTITLE10=Show me
TTITLE11=A woman's hands
TTITLE12=Skinny legs and all
TTITLE13=I'll never do you wrong
TTITLE14=Buying a book
TTITLE15=You're right, Ray Charles
TTITLE16=Keep the one you've got
TTITLE17=You need me baby
EXTD=
EXTT0=
EXTT1=
EXTT2=
EXTT3=
EXTT4=
EXTT5=
EXTT6=
EXTT7=
EXTT8=
EXTT9=
EXTT10=
EXTT11=
EXTT12=
EXTT13=
EXTT14=
EXTT15=
EXTT16=
EXTT17=
PLAYORDER=
